<?xml version="1.0" standalone="no"?><!DOCTYPE svg PUBLIC "-//W3C//DTD SVG 1.1//EN" "http://www.w3.org/Graphics/SVG/1.1/DTD/svg11.dtd"><svg t="1490154110034" class="icon" style="" viewBox="0 0 1024 1024" version="1.1" xmlns="http://www.w3.org/2000/svg" p-id="995" xmlns:xlink="http://www.w3.org/1999/xlink" width="200" height="200"><defs><style type="text/css"></style></defs><path d="M640 160l0 70.848c113.792 58.368 192 176.704 192 313.152 0 194.048-157.952 352-352 352C285.888 896 128 738.048 128 544c0-136.448 78.208-254.72 192-313.152L320 160c-150.336 62.656-256 211.008-256 384C64 773.76 250.24 960 480 960S896 773.76 896 544C896 371.008 790.336 222.656 640 160z" p-id="996" fill="#e6e6e6"></path><path d="M480 512C462.336 512 448 497.664 448 480l0-384C448 78.336 462.336 64 480 64S512 78.336 512 96l0 384C512 497.664 497.664 512 480 512z" p-id="997" fill="#e6e6e6"></path></svg>