<?xml version="1.0" standalone="no"?><!DOCTYPE svg PUBLIC "-//W3C//DTD SVG 1.1//EN" "http://www.w3.org/Graphics/SVG/1.1/DTD/svg11.dtd"><svg t="1490175106578" class="icon" style="" viewBox="0 0 1024 1024" version="1.1" xmlns="http://www.w3.org/2000/svg" p-id="3029" xmlns:xlink="http://www.w3.org/1999/xlink" width="200" height="200"><defs><style type="text/css"></style></defs><path d="M748 134l0 80 0 126 0 153 0 156q0 75 0.5 138t0.5 98q0 24-11.5 40t-29 21.5-38.5 0-39-23.5q-37-38-80-79.5t-88.5-83.5-92-84-89.5-81q-19-17-28.5-42t-8.5-52 11.5-53 31.5-44q39-34 77.5-68.5t79-71 85-76.5 94.5-85q22-20 44.5-26.5t40.5-2 29 20 11 39.5z" p-id="3030" fill="#707070"></path></svg>